# xmcd CD database file
#
# Track frame offsets:
#	182
#	12605
#	25225
#	38962
#	51397
#	62170
#	72997
#	87322
#	101745
#	115535
#	128285
#	138735
#	151510
#	166285
#	178287
#	188815
#
# Disc length: 2698 seconds
#
# Revision: 6
# Processed by: cddbd v1.5.2PL0 Copyright (c) Steve Scherf et al.
# Submitted via: CDex 1.79
#
DISCID=da0a8810
DTITLE=Dean Martin - The very best of Dean Martin
DYEAR=1988
DGENRE=Oldies
TTITLE0=Return to me (Rittorna a me)
TTITLE1=Angel baby
TTITLE2=Rio Bravo
TTITLE3=I've got my love to keep me warm
TTITLE4=Baby it's cold outside
TTITLE5=Buona sera
TTITLE6=That's amore (That's love)
TTITLE7=Goodnight sweetheart
TTITLE8=Volare (nel blu dipinto di blu)
TTITLE9=Write to me from Naples
TTITLE10=Memories are made from this
TTITLE11=June in January
TTITLE12=Come back to Sorrento
TTITLE13=Hey, brother pour the wine
TTITLE14=Cha, cha, cha, d'amour (melodie d'amour)
TTITLE15=I have but one heart (O Marenariello)
EXTD=YEAR: 1988
EXTT0=
EXTT1=
EXTT2=
EXTT3=
EXTT4=
EXTT5=
EXTT6=
EXTT7=
EXTT8=
EXTT9=
EXTT10=
EXTT11=
EXTT12=
EXTT13=
EXTT14=
EXTT15=
PLAYORDER=
